<svg xmlns="http://www.w3.org/2000/svg" width="250" height="250" viewBox="0 0 250 250">
  <defs>
    <style>
      .cls-1 {
        fill: #f2f6fa;
      }

      .cls-2 {
        fill: #a8deff;
      }

      .cls-3 {
        fill: #5c7a99;
      }

      .cls-3, .cls-4 {
        fill-rule: evenodd;
      }

      .cls-4 {
        fill: #fff;
      }
    </style>
  </defs>
  <circle class="cls-1" cx="125" cy="125" r="125"/>
  <g>
    <rect id="Rounded_Rectangle_2" data-name="Rounded Rectangle 2" class="cls-2" x="33" y="21" width="178" height="99" rx="10" ry="10"/>
    <path id="Rounded_Rectangle_2_copy_2" data-name="Rounded Rectangle 2 copy 2" class="cls-3" d="M679,170h79c4.381,0,8,4.619,8,9v69l-12,12-11.187-10.348-10.77,10.7-10.657-10.284-11.947,10.56L699.4,250.421l-11.682,10.593L677,250.723l-11.311,9.637L654.36,250l-10.048,10.79-11.047-10.331-11.82,9.7-10.731-9.293-10.122,9.54L588,249l4-92c0-5.523,4.477-8,10-8h43c5.423,0,8.4,1.4,12.071,5.071L669.5,166.5C672.292,169.292,676.875,170,679,170Z" transform="translate(-555 -130)"/>
    <path id="Rounded_Rectangle_2_copy" data-name="Rounded Rectangle 2 copy" class="cls-4" d="M677,174h79c4.381,0,8,4.619,8,9,0,2.459,2,6.857,2,6.857V268l-12,12-11.187-10.348-10.77,10.7-10.657-10.284-11.947,10.56L699.4,270.421l-11.682,10.593L677,270.723l-11.311,9.637L654.36,270l-10.048,10.79-11.047-10.331-11.82,9.7-10.731-9.293-10.122,9.54L588,269V161a10,10,0,0,1,10-10h21c4.326,0,22,2,24,2,5.423,0,8.4,1.4,12.071,5.071L667.5,170.5C670.292,173.292,674.875,174,677,174Z" transform="translate(-555 -130)"/>
    <path id="Rectangle_1_copy_4" data-name="Rectangle 1 copy 4" class="cls-3" d="M754,284l-11-11.091L732,284l-11-11.091L710,284l-11-11.091L688,284l-11-11.091L666,284l-11-11.091L644,284l-11-11.091L622,284l-11-11.091L600,284l-14-14V161a12,12,0,0,1,12-12H756a12,12,0,0,1,12,12V270Zm0-131H600a10,10,0,0,0-10,10V268.116l10,10L611,267l11,11.116L633,267l11,11.116L655,267l11,11.116L677,267l11,11.116L699,267l11,11.116L721,267l11,11.116L743,267l11,11.116,10-10V163A10,10,0,0,0,754,153Z" transform="translate(-555 -130)"/>
    <path id="Rectangle_1_copy_7" data-name="Rectangle 1 copy 7" class="cls-4" d="M760,304l-13-9-10,12-13-9-9,11-13-8-10,12-13-9-9,11-13-9-10,12-13-9-10,12-13-9-9,12-10-7,3,30c0.7,5.693,5.368,11.71,11,11l156.981-18.868a10.367,10.367,0,0,0,8.927-11.594L768,295Z" transform="translate(-555 -130)"/>
    <path id="Rectangle_1_copy_6" data-name="Rectangle 1 copy 6" class="cls-3" d="M763.547,341.034L606.76,360.574a12,12,0,0,1-13.392-10.424l-4.823-38.7,12.659,9.6,9.916-12.413,12.66,9.6,9.916-12.413,12.659,9.6,9.916-12.413,12.659,9.6,9.916-12.413,12.66,9.6,9.916-12.413,12.659,9.6L724,294.569l12.659,9.6,9.916-12.413,12.649,9.509,9.927-12.322,4.823,38.7A12,12,0,0,1,763.547,341.034Zm-3.584-33.816-12.649-9.509-9.927,12.322-12.662-9.624-9.913,12.438-12.663-9.624-9.913,12.437-12.662-9.624-9.913,12.438L657,308.848l-9.913,12.438-12.663-9.624L624.51,324.1l-12.662-9.624-9.913,12.438-8.21-6.24,3.365,27a10,10,0,0,0,11.16,8.687l152.818-19.046a10,10,0,0,0,8.686-11.16l-3.364-27Z" transform="translate(-555 -130)"/>
    <path class="cls-3" d="M695,212a4,4,0,1,1,4-4A4,4,0,0,1,695,212Zm-9.862,20.971a1.838,1.838,0,0,1-1.313-.552,8.869,8.869,0,0,0-12.66,0,1.836,1.836,0,0,1-2.625,0,1.9,1.9,0,0,1,0-2.664,12.548,12.548,0,0,1,17.911,0,1.905,1.905,0,0,1,0,2.664A1.838,1.838,0,0,1,685.138,232.971ZM660,212a4,4,0,1,1,4-4A4,4,0,0,1,660,212Z" transform="translate(-555 -130)"/>
  </g>
</svg>
